<svg height="511pt" viewBox="0 -24 511.95732 511" width="511pt" xmlns="http://www.w3.org/2000/svg"><path d="m377.074219 386.398438-61.355469 41.730468c-1.875 0-3.667969-.085937-5.542969-.171875-49.324219-2.816406-88.320312-59.5625-88.320312-93.695312 0-25.601563 41.980469-93.867188 93.863281-93.867188l58.710938 33.109375c9.984374 9.996094 9.984374 26.1875 0 36.179688-4.789063 4.804687-7.488282 11.308594-7.507813 18.09375v4.4375c.019531 6.78125 2.71875 13.285156 7.507813 18.089844l1.367187 1.363281c9.421875 9.472656 9.980469 24.59375 1.277344 34.730469zm0 0" fill="#3f51b5"/><path d="m290.121094 129.375c0 25.601562-41.984375 93.867188-93.867188 93.867188l-5.800781-3.242188-52.910156-29.867188c-9.980469-9.996093-9.980469-26.1875 0-36.179687 4.804687-4.796875 7.503906-11.304687 7.511719-18.09375v-4.351563c-.019532-6.808593-2.71875-13.335937-7.511719-18.175781l-1.363281-1.277343c-9.40625-9.511719-9.964844-24.640626-1.28125-34.816407l57.003906-38.828125 4.351562-2.902344c1.878906 0 3.667969.085938 5.546875.171876 49.324219 2.816406 88.320313 59.5625 88.320313 93.695312zm0 0" fill="#283593"/><path d="m264.519531 129.375c0 22.273438-31.742187 76.714844-74.066406 90.625l-52.910156-29.867188c-9.980469-9.996093-9.980469-26.1875 0-36.179687 4.804687-4.796875 7.503906-11.304687 7.511719-18.09375v-4.351563c-.019532-6.808593-2.71875-13.335937-7.511719-18.175781l-1.363281-1.277343c-9.40625-9.511719-9.964844-24.640626-1.28125-34.816407l57.003906-38.828125c41.640625 12.203125 72.617187 60.585938 72.617187 90.964844zm0 0" fill="#3f51b5"/><path d="m374.003906 418.828125c3.957032 7.285156 8.960938 13.953125 14.847656 19.796875 16.042969 16.042969 43.09375 16.554688 56.0625 15.785156 4.324219-.25 7.769532-3.699218 8.023438-8.019531.765625-12.972656.253906-40.023437-15.789062-56.066406-1.277344-1.277344-2.558594-2.472657-3.839844-3.582031l-108.203125-146.859376c-.589844-4.070312-.875-8.175781-.851563-12.289062 0-22.699219 18.773438-42.238281 28.414063-50.773438 3.261719-2.898437 8.175781-2.898437 11.4375 0 9.722656 8.390626 17.722656 18.59375 23.550781 30.039063zm0 0" fill="#283593"/><path d="m137.972656 44.835938c-3.960937-7.285157-8.964844-13.957032-14.847656-19.796876-16.042969-16.042968-43.09375-16.554687-56.066406-15.785156-4.320313.25-7.769532 3.699219-8.019532 8.019532-.769531 12.972656-.257812 40.019531 15.785157 56.0625 1.28125 1.28125 2.558593 2.476562 3.839843 3.585937l108.203126 146.859375c.59375 4.066406.878906 8.175781.851562 12.285156 0 22.699219-18.773438 42.242188-28.414062 50.773438-3.261719 2.902344-8.175782 2.902344-11.433594 0-9.726563-8.386719-17.726563-18.589844-23.554688-30.035156zm0 0" fill="#283593"/><path d="m503.453125 240.394531c.027344 101.519531-80.710937 184.640625-182.1875 187.5625-1.875.085938-3.667969.171875-5.546875.171875l8.960938-10.410156c77.25-10.792969 139.769531-68.238281 157.042968-144.296875 17.277344-76.058594-14.296875-154.875-79.304687-197.976563-2.210938-1.414062-3.632813-3.785156-3.832031-6.402343-.203126-2.617188.839843-5.175781 2.808593-6.910157 5.703125-4.929687 10.175781-11.125 13.058594-18.089843 2.980469-10.992188 1.890625-22.6875-3.074219-32.9375 1.449219-.597657 2.730469-1.109375 4.011719-1.539063 4.097656-1.492187 8.65625.398438 10.496094 4.355469 4.4375 9.128906 10.75 26.109375 5.632812 38.652344-2.882812 6.96875-7.351562 13.164062-13.058593 18.09375-1.96875 1.734375-3.011719 4.292969-2.808594 6.910156s1.621094 4.988281 3.832031 6.402344c52.476563 34.730469 84.019531 93.484375 83.96875 156.414062zm0 0" fill="#0377bc"/><path d="m486.386719 231.859375c.027343 93.625-68.976563 172.9375-161.707031 185.859375l26.796874-31.320312c8.699219-10.136719 8.140626-25.257813-1.28125-34.730469l-1.367187-1.363281c-4.789063-4.804688-7.488281-11.308594-7.507813-18.089844v-4.4375c.019532-6.785156 2.71875-13.289063 7.507813-18.09375 9.984375-9.992188 9.984375-26.183594 0-36.179688l-33.109375-33.109375c32.46875.003907 62.636719-16.769531 79.761719-44.351562 17.125-27.585938 18.78125-62.058594 4.378906-91.15625-1.25-2.582031-3.726563-4.351563-6.574219-4.699219-2.847656-.34375-5.675781.78125-7.507812 2.992188l-.253906.253906c-4.988282 6.085937-11.410157 10.839844-18.6875 13.824218-12.542969 5.121094-29.527344-1.195312-38.65625-5.632812-1.558594-.710938-2.847657-1.90625-3.667969-3.410156-1.292969-2.136719-1.542969-4.742188-.683594-7.085938 3.328125-9.554687 10.835937-26.023437 23.378906-31.230468 6.054688-1.988282 12.40625-2.914063 18.773438-2.730469 3.839843-.171875 7.679687-.085938 11.09375-.171875 1.683593.015625 3.207031-1 3.839843-2.558594v-.085938c.234376-.476562.351563-1.003906.34375-1.535156-.628906-10.046875.351563-20.128906 2.898438-29.867187 6.023438-10.429688 15.738281-18.222657 27.222656-21.84375 4.964844 10.25 6.054688 21.945312 3.074219 32.9375-2.882813 6.964843-7.355469 13.160156-13.058594 18.089843-1.96875 1.734376-3.011719 4.292969-2.808593 6.910157.199218 2.617187 1.621093 4.988281 3.832031 6.402343 52.476562 34.734376 84.019531 93.484376 83.96875 156.414063zm0 0" fill="#02a9f4"/><path d="m102.386719 317.109375c-.023438 11.933594 2.265625 23.753906 6.742187 34.816406.871094 2.328125 1.867188 4.605469 2.984375 6.824219 1.3125 2.613281 3.863281 4.375 6.769531 4.667969s5.761719-.917969 7.570313-3.214844c4.984375-6.085937 11.40625-10.835937 18.6875-13.824219 8.242187-2.644531 17.128906-2.464844 25.257813.511719 4.609374 1.304687 9.09375 3.019531 13.398437 5.121094 3.953125 1.839843 5.84375 6.398437 4.351563 10.496093-3.328126 9.554688-10.839844 26.027344-23.382813 31.230469-6.050781 1.988281-12.40625 2.914063-18.773437 2.730469-3.839844.171875-7.679688.085938-11.09375.171875-1.683594-.015625-3.207032 1-3.839844 2.558594v.085937c-.234375.476563-.351563 1.003906-.339844 1.535156.625 10.046876-.351562 20.128907-2.902344 29.867188-5.207031 12.628906-21.675781 20.054688-31.230468 23.46875-4.097657 1.425781-8.613282-.445312-10.496094-4.355469-.769532-1.621093-1.621094-3.582031-2.5625-5.714843-4.964844-10.28125-6.054688-22.003907-3.070313-33.023438 2.902344-6.957031 7.371094-13.144531 13.054688-18.09375 1.972656-1.734375 3.011719-4.292969 2.808593-6.910156-.199218-2.617188-1.621093-4.988282-3.832031-6.398438-65.007812-43.101562-96.578125-121.917968-79.304687-197.976562 17.277344-76.0625 79.796875-133.507813 157.042968-144.296875 6.789063-.960938 13.625-1.53125 20.480469-1.707031 1.878907-.085938 3.667969-.171876 5.546875-.171876l-35.753906 41.730469c-8.683594 10.175781-8.128906 25.304688 1.277344 34.816407l1.367187 1.277343c4.792969 4.839844 7.492188 11.367188 7.507813 18.175781v4.351563c-.003906 6.789063-2.707032 13.296875-7.507813 18.09375-9.980469 9.992187-9.980469 26.183594 0 36.179687l33.109375 33.109376c-24.898437-.011719-48.78125 9.871093-66.390625 27.476562-17.605469 17.609375-27.488281 41.492188-27.476562 66.390625zm0 0" fill="#0377bc"/><path d="m170.398438 346.890625c1.289062 2.136719 1.539062 4.742187.683593 7.082031-3.328125 9.558594-10.839843 26.027344-23.382812 31.234375-6.054688 1.988281-12.40625 2.910157-18.773438 2.730469-3.839843.167969-7.679687.082031-11.09375.167969-1.683593-.015625-3.207031 1-3.839843 2.5625v.082031c-.234376.480469-.351563 1.007812-.339844 1.539062.625 10.046876-.351563 20.128907-2.902344 29.867188-4.523438 11.007812-17.578125 18.003906-27.222656 21.929688-4.964844-10.28125-6.054688-22.003907-3.070313-33.023438 2.902344-6.957031 7.371094-13.144531 13.054688-18.09375 1.972656-1.734375 3.011719-4.292969 2.808593-6.910156-.199218-2.617188-1.621093-4.988282-3.832031-6.398438-68.949219-45.371094-99.875-130.671875-76.019531-209.6875 23.859375-79.019531 96.820312-132.953125 179.359375-132.589844l-35.191406 35.066407c-4.179688 4.167969-6.429688 9.890625-6.210938 15.785156.214844 5.898437 2.882813 11.4375 7.351563 15.285156l1.367187 1.28125c4.792969 4.835938 7.492188 11.367188 7.507813 18.175781v4.351563c-.003906 6.785156-2.707032 13.292969-7.507813 18.089844-9.980469 9.996093-9.980469 26.1875 0 36.183593l16.042969 33.109376c-32.46875-.007813-62.632812 16.765624-79.761719 44.351562-17.125 27.582031-18.78125 62.058594-4.378906 91.15625 1.25 2.582031 3.726563 4.351562 6.574219 4.695312 2.847656.347657 5.675781-.78125 7.507812-2.988281.871094 2.328125 1.867188 4.605469 2.984375 6.824219 1.3125 2.613281 3.863281 4.375 6.769531 4.667969s5.761719-.917969 7.570313-3.214844c4.984375-6.085937 11.40625-10.835937 18.6875-13.824219 8.242187-2.644531 17.128906-2.464844 25.257813.511719zm0 0" fill="#02a9f4"/><path d="m315.71875 436.660156c-3.332031 0-6.359375-1.941406-7.75-4.96875-1.394531-3.027344-.894531-6.589844 1.273438-9.117187l35.78125-41.738281c5.75-6.789063 5.359374-16.847657-.902344-23.167969l-1.339844-1.347657c-6.421875-6.386718-10.019531-15.078124-9.992188-24.132812v-4.386719c-.027343-9.058593 3.574219-17.75 10-24.140625 6.660157-6.664062 6.660157-17.46875 0-24.132812l-33.101562-33.101563c-3.234375-3.347656-3.1875-8.667969.105469-11.960937 3.289062-3.289063 8.613281-3.335938 11.960937-.101563l33.101563 33.097657c13.324219 13.332031 13.324219 34.9375 0 48.265624-3.210938 3.195313-5.011719 7.542969-5 12.074219v4.386719c-.011719 4.53125 1.789062 8.878906 5 12.074219l1.339843 1.347656c12.535157 12.640625 13.308594 32.773437 1.78125 46.335937l-35.777343 41.738282c-1.621094 1.890625-3.988281 2.976562-6.480469 2.976562zm0 0"/><path d="m307.1875 291.59375c0 4.714844-3.820312 8.535156-8.535156 8.535156-4.710938 0-8.53125-3.820312-8.53125-8.535156 0-4.710938 3.820312-8.53125 8.53125-8.53125 4.714844 0 8.535156 3.820312 8.535156 8.53125zm0 0"/><path d="m307.1875 376.929688c0 4.710937-3.820312 8.53125-8.535156 8.53125-4.710938 0-8.53125-3.820313-8.53125-8.53125 0-4.714844 3.820312-8.535157 8.53125-8.535157 4.714844 0 8.535156 3.820313 8.535156 8.535157zm0 0"/><path d="m315.71875 436.660156c-2.003906 0-3.921875-.085937-5.972656-.179687-55.039063-3.148438-96.425782-64.175781-96.425782-102.21875 0-29.695313 44.3125-102.402344 102.398438-102.402344 47.109375-.050781 85.285156-38.222656 85.335938-85.332031.042968-13.128906-2.972657-26.085938-8.808594-37.84375-5.839844 7.289062-13.449219 12.960937-22.101563 16.484375-14.90625 6.136719-33.046875.238281-45.652343-5.765625-7.914063-3.730469-11.707032-12.855469-8.773438-21.097656 4.636719-13.140626 13.296875-30.113282 28.160156-36.289063 7.035156-2.484375 14.46875-3.640625 21.921875-3.414063 2.152344-.101562 4.566407-.113281 6.898438-.121093v-.367188c-.554688-9.59375.625-19.210937 3.480469-28.390625 6.273437-14.921875 23.246093-23.585937 36.394531-28.261718 8.214843-2.917969 17.304687.855468 21.042969 8.730468 5.972656 12.585938 11.902343 30.71875 5.792968 45.601563-3.386718 8.253906-8.6875 15.585937-15.46875 21.382812 71.347656 47.070313 103.929688 134.96875 80.5 217.167969-23.429687 82.199219-97.460937 139.710938-182.902344 142.085938-1.894531.144531-3.8125.230468-5.820312.230468zm76.519531-345.035156c.613281 0 1.226563.035156 1.835938.101562 5.800781.605469 10.886719 4.152344 13.457031 9.386719 7.011719 14.109375 10.636719 29.660157 10.589844 45.414063-.0625 56.527344-45.871094 102.339844-102.402344 102.402344-46.929688 0-85.332031 64.425781-85.332031 85.332031 0 31.09375 36.738281 82.6875 80.265625 85.171875 3.335937.160156 6.714844.160156 10.238281 0 78.046875-2.230469 145.664063-54.753906 167.121094-129.824219 21.460937-75.074219-8.175781-155.398437-73.253907-198.539063-4.515624-2.992187-7.359374-7.929687-7.679687-13.339843-.34375-5.21875 1.824219-10.292969 5.835937-13.652344 4.707032-4.019531 8.382813-9.101563 10.726563-14.832031 2.851563-6.925782.855469-18.515625-5.417969-31.714844-13.730468 4.878906-23.289062 11.671875-26.1875 18.660156-1.867187 7.179688-2.605468 14.601563-2.195312 22.007813l-.050782 4.746093c-.007812 1.394532-.265624 2.78125-.757812 4.085938l-.15625.433594c-1.910156 4.847656-6.589844 8.035156-11.800781 8.03125-1.203125 0-2.6875.042968-4.222657.050781-2.109374 0-4.265624 0-6.496093.113281-5.390625-.207031-10.777344.503906-15.929688 2.105469-6.9375 2.886719-13.730469 12.433594-18.578125 26.191406 13.183594 6.269531 24.746094 8.25 31.746094 5.375 5.949219-2.398437 11.203125-6.253906 15.273438-11.214843 3.230468-4.09375 8.15625-6.484376 13.371093-6.492188zm0 0"/><path d="m325.105469 248.414062c-4.21875.003907-7.808594-3.085937-8.4375-7.261718-.652344-4.488282-.96875-9.019532-.949219-13.558594 0-25.597656 19.628906-46.820312 31.292969-57.171875 6.46875-5.761719 16.230469-5.761719 22.699219 0 10.605468 9.171875 19.324218 20.324219 25.660156 32.835937 1.371094 2.769532 1.140625 6.0625-.605469 8.609376-1.746094 2.550781-4.730469 3.957031-7.808594 3.679687s-5.761719-2.199219-7.023437-5.019531c-5.328125-10.402344-12.625-19.675782-21.476563-27.304688-7.808593 6.824219-25.667969 24.746094-25.667969 44.371094-.027343 3.6875.226563 7.371094.757813 11.015625.335937 2.238281-.226563 4.519531-1.574219 6.34375-1.34375 1.820313-3.355468 3.03125-5.59375 3.367187-.421875.066407-.847656.097657-1.273437.09375zm0 0"/><path d="m437.746094 463.15625c-16.210938 0-39.542969-3.089844-54.953125-18.5-6.480469-6.425781-11.984375-13.769531-16.332031-21.792969-1.480469-2.691406-1.402344-5.96875.203124-8.582031 1.609376-2.617188 4.496094-4.167969 7.5625-4.0625 3.070313.105469 5.84375 1.851562 7.269532 4.570312 3.558594 6.554688 8.058594 12.550782 13.363281 17.792969 13.824219 13.832031 39.253906 13.890625 49.492187 13.3125.613282-10.292969.539063-35.703125-13.292968-49.492187-1.128906-1.128906-2.269532-2.195313-3.414063-3.175782-2.300781-2-3.363281-5.078124-2.777343-8.074218.582031-2.992188 2.714843-5.449219 5.601562-6.441406 2.882812-.992188 6.078125-.371094 8.378906 1.628906 1.417969 1.234375 2.839844 2.5625 4.265625 3.976562 18.058594 18.066406 19.203125 46.984375 18.269531 62.617188-.523437 8.59375-7.363281 15.449218-15.957031 15.992187-2.292969.136719-4.871093.230469-7.679687.230469zm0 0"/><path d="m196.253906 231.800781c-2.265625.007813-4.4375-.894531-6.03125-2.5l-33.101562-33.101562c-13.324219-13.328125-13.324219-34.933594 0-48.261719 3.1875-3.210938 4.984375-7.550781 5-12.078125v-4.382813c.011718-4.53125-1.789063-8.878906-5-12.074218l-1.339844-1.339844c-12.539062-12.644531-13.3125-32.777344-1.785156-46.347656l35.78125-41.734375c3.113281-3.371094 8.332031-3.675781 11.816406-.691407 3.484375 2.984376 3.988281 8.1875 1.136719 11.785157l-35.78125 41.734375c-5.753907 6.789062-5.359375 16.851562.90625 23.167968l1.339843 1.347657c6.421876 6.390625 10.023438 15.089843 9.992188 24.152343v4.382813c.027344 9.0625-3.574219 17.753906-10 24.144531-6.664062 6.664063-6.664062 17.464844 0 24.128906l33.097656 33.101563c2.441406 2.441406 3.171875 6.109375 1.851563 9.300781-1.320313 3.1875-4.433594 5.265625-7.882813 5.265625zm0 0"/><path d="m221.855469 172.128906c0 4.710938-3.820313 8.53125-8.535157 8.53125-4.710937 0-8.53125-3.820312-8.53125-8.53125 0-4.714844 3.820313-8.535156 8.53125-8.535156 4.714844 0 8.535157 3.820312 8.535157 8.535156zm0 0"/><path d="m221.855469 86.792969c0 4.714843-3.820313 8.535156-8.535157 8.535156-4.710937 0-8.53125-3.820313-8.53125-8.535156 0-4.710938 3.820313-8.53125 8.53125-8.53125 4.714844 0 8.535157 3.820312 8.535157 8.53125zm0 0"/><path d="m93.699219 463.15625c-6.566407.007812-12.550781-3.773438-15.359375-9.710938-5.972656-12.585937-11.902344-30.71875-5.792969-45.59375 3.378906-8.261718 8.683594-15.59375 15.46875-21.390624-71.347656-47.066407-103.929687-134.96875-80.5-217.167969s97.460937-139.710938 182.902344-142.085938c3.71875-.179687 7.679687-.179687 11.722656 0 55.125 3.113281 96.511719 64.152344 96.511719 102.195313 0 29.695312-44.3125 102.398437-102.398438 102.398437-47.105468.050781-85.28125 38.226563-85.332031 85.335938-.042969 13.125 2.972656 26.082031 8.804687 37.84375 5.855469-7.273438 13.46875-12.9375 22.117188-16.453125 14.910156-6.117188 33.066406-.238282 45.664062 5.777344 7.894532 3.726562 11.679688 12.835937 8.746094 21.0625-4.632812 13.132812-13.296875 30.09375-28.160156 36.273437-7.035156 2.480469-14.472656 3.640625-21.929688 3.414063-2.152343.101562-4.703124.160156-6.894531.117187v.402344c.550781 9.597656-.628906 19.210937-3.484375 28.390625-6.203125 14.933594-23.175781 23.59375-36.316406 28.238281-1.851562.644531-3.804688.96875-5.769531.953125zm102.554687-419.089844c-1.707031 0-3.414062.078125-5.121094.164063-78.046874 2.226562-145.660156 54.75-167.121093 129.824219-21.460938 75.070312 8.175781 155.394531 73.253906 198.539062 4.515625 2.988281 7.359375 7.929688 7.679687 13.335938.332032 5.207031-1.835937 10.253906-5.835937 13.601562-4.6875 4.03125-8.34375 9.121094-10.675781 14.847656-2.847656 6.9375-.851563 18.519532 5.421875 31.71875 13.730469-4.878906 23.285156-11.671875 26.1875-18.660156 1.867187-7.179688 2.605469-14.601562 2.191406-22.007812l.050781-4.746094c.007813-1.386719.261719-2.761719.753906-4.0625.050782-.160156.109376-.3125.167969-.46875 1.910157-4.839844 6.589844-8.023438 11.792969-8.019532 2.867188-.078124 6.9375 0 10.71875-.164062 5.390625.207031 10.78125-.503906 15.933594-2.105469 6.9375-2.886719 13.730468-12.433593 18.574218-26.191406-13.183593-6.269531-24.746093-8.25-31.742187-5.375-5.996094 2.386719-11.289063 6.257813-15.378906 11.246094-3.621094 4.597656-9.34375 7.015625-15.164063 6.410156-5.816406-.605469-10.921875-4.144531-13.523437-9.386719-7.007813-14.117187-10.625-29.671875-10.5625-45.429687.058593-56.53125 45.871093-102.339844 102.398437-102.402344 46.933594 0 85.332032-64.425781 85.332032-85.332031 0-31.085938-36.691407-82.6875-80.261719-85.171875-1.65625-.101563-3.363281-.164063-5.070313-.164063zm0 0"/><path d="m153.585938 297.566406c-4.164063-.003906-8.183594-1.519531-11.3125-4.265625-10.605469-9.167969-19.320313-20.320312-25.652344-32.828125-1.371094-2.765625-1.140625-6.0625.605468-8.609375 1.742188-2.550781 4.730469-3.957031 7.808594-3.679687 3.074219.277344 5.761719 2.199218 7.023438 5.019531 5.328125 10.402344 12.617187 19.671875 21.46875 27.308594 7.816406-6.828125 25.675781-24.75 25.675781-44.375.027344-3.6875-.226563-7.367188-.757813-11.015625-.707031-4.664063 2.5-9.019532 7.164063-9.726563s9.015625 2.503907 9.722656 7.164063c.644531 4.476562.949219 8.988281.921875 13.507812 0 25.601563-19.625 46.816406-31.292968 57.175782-3.140626 2.773437-7.183594 4.308593-11.375 4.324218zm0 0"/><path d="m78.664062 85.453125c-2.058593.003906-4.050781-.738281-5.605468-2.089844-1.417969-1.238281-2.84375-2.558593-4.265625-3.984375-18.058594-18.054687-19.203125-46.933594-18.269531-62.609375.507812-8.632812 7.390624-15.519531 16.023437-16.035156 15.652344-.921875 44.535156.207031 62.59375 18.269531 6.484375 6.425782 11.996094 13.769532 16.347656 21.796875 1.480469 2.6875 1.402344 5.964844-.203125 8.582031-1.609375 2.617188-4.496094 4.167969-7.566406 4.058594-3.066406-.105468-5.839844-1.847656-7.265625-4.570312-3.558594-6.550782-8.0625-12.546875-13.363281-17.789063-13.839844-13.851562-39.253906-13.9375-49.492188-13.3125-.648437 10.289063-.574218 35.746094 13.261719 49.535157 1.125 1.125 2.269531 2.191406 3.410156 3.175781 2.691407 2.332031 3.644531 6.09375 2.398438 9.429687-1.246094 3.335938-4.433594 5.546875-7.996094 5.542969zm0 0"/><path d="m42.652344 206.261719c-.792969.003906-1.582032-.109375-2.34375-.332031-2.179688-.621094-4.019532-2.082032-5.121094-4.058594-1.101562-1.976563-1.371094-4.3125-.75-6.488282 17.722656-62.03125 44.996094-80.785156 46.136719-81.554687 3.910156-2.617187 9.199219-1.574219 11.828125 2.324219 2.625 3.902344 1.601562 9.195312-2.292969 11.832031-.496094.359375-23.570313 17.195313-39.253906 72.089844-1.046875 3.660156-4.394531 6.183593-8.203125 6.1875zm0 0"/><path d="m110.160156 107.1875c-3.757812.003906-7.078125-2.457031-8.167968-6.058594-1.089844-3.597656.304687-7.488281 3.433593-9.574218l17.832031-11.867188c3.925782-2.613281 9.226563-1.546875 11.835938 2.378906 2.613281 3.925782 1.546875 9.226563-2.378906 11.835938l-17.835938 11.863281c-1.398437.925781-3.039062 1.421875-4.71875 1.421875zm0 0"/></svg>